<?xml version="1.0" encoding="utf-8"?>
<!-- Generator: Adobe Illustrator 24.1.0, SVG Export Plug-In . SVG Version: 6.00 Build 0)  -->
<svg version="1.1" id="Layer_1" xmlns="http://www.w3.org/2000/svg" xmlns:xlink="http://www.w3.org/1999/xlink" x="0px" y="0px"
	 viewBox="0 0 347 50" style="enable-background:new 0 0 347 50;" xml:space="preserve">
<style type="text/css">
	.st0{fill:#FFFFFF;}
	.st1{fill:url(#SVGID_1_);}
	.st2{fill:url(#SVGID_2_);}
</style>
<g>
	<g>
		<g>
			<path class="st0" d="M61.4,17.4c0-3.3,0.9-5.8,2.6-7.6c1.7-1.7,4.2-2.6,7.5-2.6c3.3,0,5.8,0.9,7.5,2.6c1.7,1.7,2.6,4.3,2.6,7.6
				v18.5c0,0.7-0.3,1-1,1h-3.3c-0.7,0-1-0.3-1-1V17.8c0-4-1.6-6-4.9-6c-3.3,0-5,2-5,6v18.1c0,0.7-0.3,1-1,1h-3.1c-0.7,0-1-0.3-1-1
				L61.4,17.4L61.4,17.4z"/>
			<path class="st0" d="M92.8,14c2.7,0,4.9,0.7,6.3,2.1s2.2,3.5,2.2,6.2v6.2c0,2.7-0.7,4.8-2.2,6.2c-1.5,1.4-3.6,2.1-6.3,2.1
				c-2.8,0-4.9-0.7-6.4-2.1c-1.5-1.4-2.2-3.5-2.2-6.2v-6.2c0-2.7,0.7-4.8,2.2-6.2C87.9,14.7,90,14,92.8,14z M96.5,22.7
				c0-3-1.2-4.6-3.7-4.6c-2.5,0-3.8,1.5-3.8,4.6v5.4c0,3.1,1.3,4.6,3.8,4.6c2.5,0,3.7-1.5,3.7-4.6V22.7z"/>
			<path class="st0" d="M112,14c2.8,0,4.9,0.7,6.4,2.2c1.5,1.4,2.2,3.5,2.2,6.2v6.2c0,2.7-0.7,4.8-2,6.2c-1.3,1.4-3.2,2.1-5.7,2.1
				c-2,0-3.5-0.6-4.5-1.7h-0.1v7.2c0,0.7-0.3,1-1,1h-2.8c-0.7,0-1-0.3-1-1v-20c0-2.7,0.7-4.8,2.2-6.2C107.1,14.7,109.2,14,112,14z
				 M115.8,22.7c0-3.1-1.3-4.6-3.8-4.6c-2.5,0-3.7,1.5-3.7,4.6v5.4c0,3,1.2,4.6,3.7,4.6c2.5,0,3.8-1.5,3.8-4.6V22.7z"/>
			<path class="st0" d="M142.8,14c2.6,0,4.5,0.7,5.9,2.1c1.4,1.4,2,3.4,2,6.1v13.1c0,0.7-0.3,1-1,1H147c-0.7,0-1-0.3-1-1V22.4
				c0-2.9-1.1-4.4-3.4-4.4c-2.3,0-3.4,1.5-3.4,4.4v12.9c0,0.7-0.3,1-1,1h-2.8c-0.7,0-1-0.3-1-1V22.4c0-2.9-1.2-4.4-3.5-4.4
				c-2.2,0-3.3,1.5-3.3,4.4v12.9c0,0.7-0.3,1-1,1h-2.8c-0.7,0-1-0.3-1-1V22.2c0-2.7,0.7-4.7,2-6.1s3.3-2.1,5.9-2.1
				c2.7,0,4.7,0.8,6.1,2.5h0.1C138.1,14.8,140.1,14,142.8,14z"/>
			<path class="st0" d="M160.5,14c2.8,0,5,0.7,6.5,2.2c1.5,1.5,2.2,3.6,2.2,6.5v5.8c0,2.7-0.7,4.8-2.2,6.2c-1.5,1.4-3.6,2.2-6.4,2.2
				c-2.7,0-4.7-0.6-6.1-1.8c-1.4-1.2-2.1-2.9-2.1-5.2c0-2.1,0.7-3.8,2-4.9c1.3-1.2,3.3-1.7,5.9-1.7h4.1V23c0-1.8-0.3-3-1-3.8
				c-0.7-0.8-1.8-1.1-3.3-1.1c-0.7,0-1.4,0.1-2,0.4c-0.7,0.3-1.3,0.6-1.8,1c-0.6,0.4-1,0.3-1.4-0.2l-1.2-1.8c-0.4-0.6-0.3-1,0.2-1.4
				C155.8,14.7,158,14,160.5,14z M160.7,32.7c1.3,0,2.3-0.4,2.9-1.1c0.6-0.8,0.9-1.9,0.9-3.5v-1.3h-3.4c-1.2,0-2.1,0.3-2.8,0.8
				c-0.7,0.5-1,1.3-1,2.2c0,1,0.3,1.7,0.9,2.2C158.7,32.5,159.6,32.7,160.7,32.7z"/>
			<path class="st0" d="M186.4,35.2l-5.6-19.8c-0.1-0.6-0.5-0.8-1.1-0.8h-3.3c-0.6,0-1,0.3-1.1,0.8l-5.6,19.8
				c-0.2,0.8,0.1,1.1,0.9,1.1h2.8c0.6,0,1-0.3,1.1-0.9l3.5-13.9l3.5,13.9c0.1,0.6,0.5,0.9,1.1,0.9h2.8
				C186.3,36.3,186.6,35.9,186.4,35.2z"/>
		</g>
		<g>
			<path class="st0" d="M261.8,14.8h-0.7c-0.3,0-0.5,0.2-0.5,0.5v13.3c0,2.3-0.5,4-1.4,5s-2.4,1.6-4.4,1.6c-2,0-3.4-0.5-4.4-1.6
				c-0.9-1.1-1.4-2.7-1.4-5V15.3c0-0.3-0.2-0.5-0.5-0.5h-0.8c-0.4,0-0.5,0.2-0.5,0.5V29c0,2.6,0.6,4.5,1.9,5.9c1.3,1.3,3.2,2,5.7,2
				s4.4-0.7,5.7-2c0.1-0.1,0.1-0.2,0.2-0.2v1.2c0,0.3,0.2,0.5,0.5,0.5h0.7c0.3,0,0.5-0.2,0.5-0.5V29V15.3
				C262.3,14.9,262.1,14.8,261.8,14.8z"/>
			<path class="st0" d="M199.7,35.2c3.7,0,6.2-1.5,7.6-4.5c0.1-0.3,0.4-0.4,0.7-0.3l0.6,0.3c0.3,0.1,0.4,0.4,0.3,0.7
				c-1.7,3.6-4.7,5.4-9.2,5.4c-3.3,0-5.7-0.9-7.3-2.7c-1.6-1.8-2.5-4.4-2.5-7.9v-9.1c0-3.4,0.8-6.1,2.5-7.9c1.6-1.8,4.1-2.7,7.3-2.7
				c4.4,0,7.5,1.8,9.2,5.4c0.2,0.3,0.1,0.6-0.3,0.7l-0.6,0.3c-0.3,0.2-0.6,0.1-0.7-0.3c-1.4-3-3.9-4.5-7.6-4.5c-2.7,0-4.7,0.8-6,2.3
				c-1.3,1.5-1.9,3.9-1.9,7v8.3c0,3.1,0.6,5.5,1.9,7C195,34.4,197,35.2,199.7,35.2z"/>
			<path class="st0" d="M280,33.4c0.2,0.2,0.2,0.5,0,0.8c-1.7,1.8-3.8,2.7-6.3,2.7c-2.6,0-4.5-0.7-5.9-2.1c-1.3-1.4-2-3.4-2-6.2
				v-6.2c0-2.7,0.7-4.8,2-6.2c1.3-1.4,3.3-2,5.8-2c2.6,0,4.6,0.8,6.1,2.3c0.2,0.3,0.2,0.5,0,0.8l-0.4,0.4c-0.3,0.3-0.6,0.3-0.8,0
				c-1.2-1.2-2.8-1.8-4.8-1.8c-2.1,0-3.6,0.6-4.6,1.7s-1.5,2.9-1.5,5.3v5.3c0,2.4,0.5,4.2,1.5,5.3c1,1.1,2.6,1.7,4.7,1.7
				c1.9,0,3.6-0.7,5-2.2c0.2-0.3,0.5-0.3,0.8,0L280,33.4z"/>
			<path class="st0" d="M302.3,14.2c2.4,0,4.2,0.7,5.4,2s1.9,3.3,1.9,5.9v13.7c0,0.3-0.2,0.5-0.5,0.5h-0.8c-0.4,0-0.5-0.2-0.5-0.5
				V22.6c0-2.3-0.4-4-1.3-5c-0.9-1.1-2.3-1.6-4.2-1.6c-1.8,0-3.2,0.5-4,1.6c-0.9,1.1-1.3,2.8-1.3,5v13.2c0,0.3-0.2,0.5-0.5,0.5h-0.8
				c-0.4,0-0.5-0.2-0.5-0.5V22.6c0-2.3-0.4-4-1.3-5c-0.9-1.1-2.3-1.6-4.2-1.6c-1.8,0-3.2,0.5-4,1.6c-0.9,1.1-1.3,2.8-1.3,5v13.2
				c0,0.3-0.2,0.5-0.5,0.5h-0.8c-0.4,0-0.5-0.2-0.5-0.5V22.1c0-2.6,0.6-4.6,1.8-5.9c1.2-1.3,3-2,5.3-2c3.3,0,5.5,1.3,6.5,3.8h0.1
				C296.8,15.5,299,14.2,302.3,14.2z"/>
			<path class="st0" d="M321.5,14.2c2.6,0,4.5,0.7,5.9,2.1c1.3,1.4,2,3.4,2,6.1v6.2c0,2.7-0.6,4.7-1.9,6.1c-1.3,1.4-3.2,2.1-5.8,2.1
				c-3,0-5.1-1.1-6.2-3.3h-0.1v9.2c0,0.3-0.2,0.5-0.5,0.5h-0.8c-0.4,0-0.5-0.2-0.5-0.5V22.4c0-2.7,0.7-4.7,2-6.1
				C317,14.9,318.9,14.2,321.5,14.2z M327.6,22.9c0-2.4-0.5-4.1-1.5-5.3c-1-1.1-2.5-1.7-4.6-1.7c-2.1,0-3.6,0.6-4.6,1.7
				c-1,1.1-1.5,2.9-1.5,5.3v5.4c0,4.6,2,6.9,6,6.9c2.1,0,3.6-0.6,4.6-1.7c1-1.1,1.5-2.9,1.5-5.3L327.6,22.9L327.6,22.9z"/>
			<path class="st0" d="M339.1,14.2c5.2,0,7.9,2.7,7.9,8.2v6.2c0,2.7-0.7,4.7-2,6.1c-1.3,1.4-3.3,2.1-6,2.1c-2.4,0-4.2-0.6-5.5-1.7
				c-1.3-1.1-1.9-2.7-1.9-4.7s0.7-3.6,2-4.7c1.3-1.1,3.2-1.7,5.7-1.7h5.9v-1.2c0-2.4-0.5-4.2-1.5-5.3c-1-1.1-2.5-1.7-4.6-1.7
				c-1,0-2,0.2-2.9,0.6c-0.9,0.4-1.7,0.9-2.3,1.6c-0.3,0.3-0.5,0.3-0.8,0l-0.4-0.4c-0.2-0.2-0.2-0.5,0-0.8c0.9-0.9,1.9-1.5,3-2
				C336.7,14.5,337.9,14.2,339.1,14.2z M339,35.2c2.1,0,3.7-0.6,4.7-1.7c1-1.1,1.5-2.9,1.5-5.3v-2.5h-5.7c-2,0-3.4,0.4-4.5,1.2
				c-1,0.8-1.6,2-1.6,3.5c0,1.5,0.5,2.7,1.4,3.5S337.2,35.2,339,35.2z"/>
			<path class="st0" d="M244.7,35.7l-6.1-20.5c-0.1-0.3-0.3-0.5-0.6-0.5h-1c-0.3,0-0.5,0.2-0.6,0.5l-6.1,20.5
				c-0.1,0.4,0,0.6,0.4,0.6h0.9c0.3,0,0.5-0.1,0.6-0.4l5.3-18.2l5.3,18.2c0.1,0.3,0.3,0.4,0.6,0.4h0.9
				C244.7,36.3,244.8,36.1,244.7,35.7z"/>
			<path class="st0" d="M226.3,14.8h-0.7c-0.3,0-0.5,0.2-0.5,0.5v13.3c0,2.3-0.5,4-1.4,5c-0.9,1.1-2.4,1.6-4.4,1.6
				c-2,0-3.4-0.5-4.4-1.6c-0.9-1.1-1.4-2.7-1.4-5V15.3c0-0.3-0.2-0.5-0.5-0.5h-0.8c-0.4,0-0.5,0.2-0.5,0.5V29c0,2.6,0.6,4.5,1.9,5.9
				c1.3,1.3,3.2,2,5.7,2s4.4-0.7,5.7-2c0.1-0.1,0.1-0.2,0.2-0.2v1.2c0,0.3,0.2,0.5,0.5,0.5h0.7c0.3,0,0.5-0.2,0.5-0.5V29V15.3
				C226.8,14.9,226.7,14.8,226.3,14.8z"/>
		</g>
	</g>
	<g>
		
			<linearGradient id="SVGID_1_" gradientUnits="userSpaceOnUse" x1="0" y1="29.2434" x2="44.8199" y2="29.2434" gradientTransform="matrix(1 0 0 -1 0 49.2595)">
			<stop  offset="0" style="stop-color:#888888"/>
			<stop  offset="5.270000e-02" style="stop-color:#939393"/>
			<stop  offset="0.2178" style="stop-color:#B0B0B0"/>
			<stop  offset="0.3822" style="stop-color:#C4C4C4"/>
			<stop  offset="0.5439" style="stop-color:#D1D1D1"/>
			<stop  offset="0.7" style="stop-color:#D5D5D5"/>
		</linearGradient>
		<path class="st1" d="M24.9,0.1H5c-2.7,0-5,2.2-5,5v34.9h24.9c11,0,19.9-8.9,19.9-19.9S35.9,0.1,24.9,0.1z"/>
		
			<linearGradient id="SVGID_2_" gradientUnits="userSpaceOnUse" x1="0" y1="21.7676" x2="19.734" y2="21.7676" gradientTransform="matrix(1 0 0 -1 0 49.2595)">
			<stop  offset="0" style="stop-color:#AFAFAF"/>
			<stop  offset="0.1523" style="stop-color:#C9C9C9"/>
			<stop  offset="0.3334" style="stop-color:#E1E1E1"/>
			<stop  offset="0.5262" style="stop-color:#F2F2F2"/>
			<stop  offset="0.7371" style="stop-color:#FCFCFC"/>
			<stop  offset="0.9996" style="stop-color:#FFFFFF"/>
		</linearGradient>
		<path class="st2" d="M5,10.1c-2.7,0-5-2.2-5-5v39.8c0,2.7,2.2,5,5,5h10.5c0.6,0,1-0.4,1.2-0.9L24.7,11c0.1-0.5-0.3-1-0.8-1
			C23.9,10.1,5,10.1,5,10.1z"/>
	</g>
</g>
</svg>
